{
  "accessors": [
    {
      "bufferView": 2,
      "componentType": 5126,
      "count": 4079,
      "max": [
        8.511337280273438,
        3.8655850887298584,
        0.007280940189957619
      ],
      "min": [
        -8.511337280273438,
        -3.865589141845703,
        -20.43890380859375
      ],
      "type": "VEC3"
    },
    {
      "bufferView": 2,
      "byteOffset": 48948,
      "componentType": 5126,
      "count": 4079,
      "max": [
        1.0,
        1.0,
        1.0
      ],
      "min": [
        -1.0,
        -1.0,
        -1.0
      ],
      "type": "VEC3"
    },
    {
      "bufferView": 3,
      "componentType": 5126,
      "count": 4079,
      "max": [
        0.999973475933075,
        1.0,
        1.0,
        1.0
      ],
      "min": [
        -0.9999552965164185,
        -1.0,
        -1.0,
        1.0
      ],
      "type": "VEC4"
    },
    {
      "bufferView": 1,
      "componentType": 5126,
      "count": 4079,
      "max": [
        0.9979910850524902,
        1.0
      ],
      "min": [
        -3.4189682196483773e-09,
        -3.8804120805480125e-08
      ],
      "type": "VEC2"
    },
    {
      "bufferView": 0,
      "componentType": 5125,
      "count": 18990,
      "type": "SCALAR"
    },
    {
      "bufferView": 2,
      "byteOffset": 97896,
      "componentType": 5126,
      "count": 172,
      "max": [
        6.631742477416992,
        3.6118223667144775,
        -1.6289539337158203
      ],
      "min": [
        -6.631742477416992,
        1.9706298112869263,
        -14.892439842224121
      ],
      "type": "VEC3"
    },
    {
      "bufferView": 2,
      "byteOffset": 99960,
      "componentType": 5126,
      "count": 172,
      "max": [
        1.0,
        1.0,
        1.0
      ],
      "min": [
        -1.0,
        0.0,
        -1.0
      ],
      "type": "VEC3"
    },
    {
      "bufferView": 1,
      "byteOffset": 32632,
      "componentType": 5126,
      "count": 172,
      "max": [
        0.9999998807907104,
        0.9999999403953552
      ],
      "min": [
        -3.935333836579957e-09,
        -4.474631154494091e-08
      ],
      "type": "VEC2"
    },
    {
      "bufferView": 0,
      "byteOffset": 75960,
      "componentType": 5125,
      "count": 474,
      "type": "SCALAR"
    },
    {
      "bufferView": 2,
      "byteOffset": 102024,
      "componentType": 5126,
      "count": 32,
      "max": [
        6.631742477416992,
        1.970630168914795,
        -1.6289539337158203
      ],
      "min": [
        -6.631742477416992,
        1.9706298112869263,
        -14.892439842224121
      ],
      "type": "VEC3"
    },
    {
      "bufferView": 2,
      "byteOffset": 102408,
      "componentType": 5126,
      "count": 32,
      "max": [
        1.9610151724691605e-08,
        1.0,
        -2.7688274784054556e-08
      ],
      "min": [
        1.9610151724691605e-08,
        1.0,
        -2.7688274784054556e-08
      ],
      "type": "VEC3"
    },
    {
      "bufferView": 1,
      "byteOffset": 34008,
      "componentType": 5126,
      "count": 32,
      "max": [
        0.9597266912460327,
        0.958870530128479
      ],
      "min": [
        0.041442275047302246,
        0.038285255432128906
      ],
      "type": "VEC2"
    },
    {
      "bufferView": 0,
      "byteOffset": 77856,
      "componentType": 5125,
      "count": 90,
      "type": "SCALAR"
    }
  ],
  "asset": {
    "extras": {
      "author": "Alex Krush (https://sketchfab.com/Alex_Krush)",
      "license": "CC-BY-4.0 (http://creativecommons.org/licenses/by/4.0/)",
      "source": "https://sketchfab.com/3d-models/old-alarm-clock-427c5e59ff314ce298559c61e28ecf70",
      "title": "Old Alarm Clock"
    },
    "generator": "Sketchfab-16.15.0",
    "version": "2.0"
  },
  "bufferViews": [
    {
      "buffer": 0,
      "byteLength": 78216,
      "name": "floatBufferViews",
      "target": 34963
    },
    {
      "buffer": 0,
      "byteLength": 34264,
      "byteOffset": 78216,
      "byteStride": 8,
      "name": "floatBufferViews",
      "target": 34962
    },
    {
      "buffer": 0,
      "byteLength": 102792,
      "byteOffset": 112480,
      "byteStride": 12,
      "name": "floatBufferViews",
      "target": 34962
    },
    {
      "buffer": 0,
      "byteLength": 65264,
      "byteOffset": 215272,
      "byteStride": 16,
      "name": "floatBufferViews",
      "target": 34962
    }
  ],
  "buffers": [
    {
      "byteLength": 280536,
      "uri": "scene.bin"
    }
  ],
  "extensionsUsed": [
    "KHR_materials_transmission",
    "KHR_materials_specular"
  ],
  "images": [
    {
      "uri": "textures/Scratched_Gold_baseColor.png"
    },
    {
      "uri": "textures/Scratched_Gold_metallicRoughness.png"
    },
    {
      "uri": "textures/Scratched_Gold_normal.png"
    },
    {
      "uri": "textures/Material.001_baseColor.jpeg"
    }
  ],
  "materials": [
    {
      "doubleSided": true,
      "name": "Scratched_Gold",
      "normalTexture": {
        "index": 2
      },
      "pbrMetallicRoughness": {
        "baseColorTexture": {
          "index": 0
        },
        "metallicRoughnessTexture": {
          "index": 1
        }
      }
    },
    {
      "alphaMode": "BLEND",
      "doubleSided": true,
      "extensions": {
        "KHR_materials_specular": {
          "specularColorFactor": [
            1.0,
            1.0,
            1.0
          ],
          "specularFactor": 1.0
        },
        "KHR_materials_transmission": {
          "transmissionFactor": 1.0
        }
      },
      "name": "Glass.001",
      "pbrMetallicRoughness": {
        "baseColorFactor": [
          0.8,
          0.769451,
          0.681937,
          0.25
        ],
        "metallicFactor": 0.0,
        "roughnessFactor": 0.0
      }
    },
    {
      "doubleSided": true,
      "name": "Material.001",
      "pbrMetallicRoughness": {
        "baseColorTexture": {
          "index": 3
        },
        "metallicFactor": 0.0,
        "roughnessFactor": 0.8211145618000169
      }
    }
  ],
  "meshes": [
    {
      "name": "SM_OldAlrmClock_Scratched Gold_0",
      "primitives": [
        {
          "attributes": {
            "NORMAL": 1,
            "POSITION": 0,
            "TANGENT": 2,
            "TEXCOORD_0": 3
          },
          "indices": 4,
          "material": 0,
          "mode": 4
        }
      ]
    },
    {
      "name": "SM_OldAlrmClock_Glass.001_0",
      "primitives": [
        {
          "attributes": {
            "NORMAL": 6,
            "POSITION": 5,
            "TEXCOORD_0": 7
          },
          "indices": 8,
          "material": 1,
          "mode": 4
        }
      ]
    },
    {
      "name": "SM_OldAlrmClock_Material.001_0",
      "primitives": [
        {
          "attributes": {
            "NORMAL": 10,
            "POSITION": 9,
            "TEXCOORD_0": 11
          },
          "indices": 12,
          "material": 2,
          "mode": 4
        }
      ]
    }
  ],
  "nodes": [
    {
      "children": [
        1
      ],
      "matrix": [
        1.0,
        0.0,
        0.0,
        0.0,
        0.0,
        2.220446049250313e-16,
        -1.0,
        0.0,
        0.0,
        1.0,
        2.220446049250313e-16,
        0.0,
        0.0,
        0.0,
        0.0,
        1.0
      ],
      "name": "Sketchfab_model"
    },
    {
      "children": [
        2
      ],
      "matrix": [
        0.009999999776482582,
        0.0,
        0.0,
        0.0,
        0.0,
        0.0,
        0.009999999776482582,
        0.0,
        0.0,
        -0.009999999776482582,
        0.0,
        0.0,
        0.0,
        0.0,
        0.0,
        1.0
      ],
      "name": "1709e39a363b437a8484848ce3ee44f6.fbx"
    },
    {
      "children": [
        3
      ],
      "name": "RootNode"
    },
    {
      "children": [
        4,
        5,
        6
      ],
      "matrix": [
        1.0,
        0.0,
        0.0,
        0.0,
        0.0,
        -1.6292067939183141e-07,
        0.9999999999999868,
        0.0,
        0.0,
        -0.9999999999999868,
        -1.6292067939183141e-07,
        0.0,
        0.0,
        0.0,
        0.0,
        1.0
      ],
      "name": "SM_OldAlrmClock"
    },
    {
      "mesh": 0,
      "name": "SM_OldAlrmClock_Scratched Gold_0"
    },
    {
      "mesh": 1,
      "name": "SM_OldAlrmClock_Glass.001_0"
    },
    {
      "mesh": 2,
      "name": "SM_OldAlrmClock_Material.001_0"
    }
  ],
  "samplers": [
    {
      "magFilter": 9729,
      "minFilter": 9987,
      "wrapS": 10497,
      "wrapT": 10497
    }
  ],
  "scene": 0,
  "scenes": [
    {
      "name": "Sketchfab_Scene",
      "nodes": [
        0
      ]
    }
  ],
  "textures": [
    {
      "sampler": 0,
      "source": 0
    },
    {
      "sampler": 0,
      "source": 1
    },
    {
      "sampler": 0,
      "source": 2
    },
    {
      "sampler": 0,
      "source": 3
    }
  ]
}
